/* XPM */
static char * C:\Users\Nick\Desktop\iconscoin\bitcoin64_xpm[] = {
"64 64 259 2",
"  	c #C4CCDF",
". 	c #C4CCE0",
"+ 	c #C3CCDF",
"@ 	c #C2CDDF",
"# 	c #C2CEDF",
"$ 	c #C4CBE1",
"% 	c #C5CCDF",
"& 	c #C5CCDE",
"* 	c #C5CBDE",
"= 	c #C8CEDF",
"- 	c #CED3E5",
"; 	c #D4DAE5",
"> 	c #D6DBE7",
", 	c #C5CDE0",
"' 	c #C5CCE0",
") 	c #C7CDDD",
"! 	c #D3D9E4",
"~ 	c #E0E5ED",
"{ 	c #F0F2F6",
"] 	c #F9FCFB",
"^ 	c #FDFEFB",
"/ 	c #FEFEFB",
"( 	c #EBEDF4",
"_ 	c #C3CDDE",
": 	c #C6CCDF",
"< 	c #D5D9E6",
"[ 	c #E7EDF0",
"} 	c #FAFAFB",
"| 	c #FEFEFD",
"1 	c #FEFEFC",
"2 	c #FEFEFE",
"3 	c #FFFEFF",
"4 	c #F1F3F5",
"5 	c #C6CDE1",
"6 	c #C3CDDF",
"7 	c #C3CDE0",
"8 	c #D7DDE9",
"9 	c #F3F5F8",
"0 	c #FFFFFF",
"a 	c #FFFEFE",
"b 	c #F3F5F9",
"c 	c #CBD2E0",
"d 	c #C4CDDE",
"e 	c #C5CCE1",
"f 	c #CDD1E4",
"g 	c #ECF0F5",
"h 	c #FCFEFE",
"i 	c #FEFFFD",
"j 	c #FFFFFC",
"k 	c #F7F9FB",
"l 	c #D6D8E4",
"m 	c #C4CCE1",
"n 	c #D1D7E1",
"o 	c #F9F9F9",
"p 	c #FEFFFC",
"q 	c #FCFCFB",
"r 	c #DBDFE7",
"s 	c #C5CDDF",
"t 	c #C5CBDF",
"u 	c #CFD6E0",
"v 	c #F7FBFC",
"w 	c #FFFFFD",
"x 	c #FFFFFE",
"y 	c #FDFCFE",
"z 	c #DDE0E9",
"A 	c #C5CBE1",
"B 	c #C3CDE1",
"C 	c #C8CFDE",
"D 	c #F3F6F8",
"E 	c #FEFEFF",
"F 	c #FCFDFD",
"G 	c #D6D9E5",
"H 	c #C4CCDE",
"I 	c #C3CCDE",
"J 	c #DFE4EE",
"K 	c #FEFFFE",
"L 	c #F8F8FB",
"M 	c #CBD0E0",
"N 	c #C6CCDE",
"O 	c #F4F7FA",
"P 	c #FEFFFF",
"Q 	c #E4E6EE",
"R 	c #CDD4E1",
"S 	c #FDFFFF",
"T 	c #F5F7F9",
"U 	c #C4CCDD",
"V 	c #D2D9E3",
"W 	c #F9FBFC",
"X 	c #C6CDDE",
"Y 	c #FBFCFC",
"Z 	c #C7CDDF",
"` 	c #C4CBE0",
" .	c #D4DAE6",
"..	c #FBFBFD",
"+.	c #C7CEDF",
"@.	c #D7DDE7",
"#.	c #D8DDE8",
"$.	c #D8DEE9",
"%.	c #DBDFEA",
"&.	c #C3CCE0",
"*.	c #DBE0EA",
"=.	c #C2CDE0",
"-.	c #D8E1EA",
";.	c #FCFCFC",
">.	c #C8CEE1",
",.	c #DAE1E6",
"'.	c #FFFFFB",
").	c #C8CFDD",
"!.	c #D7DDEA",
"~.	c #F8FAFA",
"{.	c #FDFDFD",
"].	c #E3EAF0",
"^.	c #C4CDDC",
"/.	c #DBE0EB",
"(.	c #F8F9FB",
"_.	c #C4CEE0",
":.	c #D7DCE7",
"<.	c #F6F7F8",
"[.	c #C4CDE0",
"}.	c #D3D8E3",
"|.	c #F2F3F5",
"1.	c #CAD3E0",
"2.	c #EBEFF2",
"3.	c #C2CDE1",
"4.	c #C4CBE4",
"5.	c #C6CEDE",
"6.	c #F8F9FC",
"7.	c #E4E8EE",
"8.	c #ECEDF5",
"9.	c #D7DAE6",
"0.	c #CED5E1",
"a.	c #FAFDFD",
"b.	c #FFFDFE",
"c.	c #F0F3F7",
"d.	c #F1F4F7",
"e.	c #DBDFE9",
"f.	c #E6E9F0",
"g.	c #CED3E3",
"h.	c #DDE3EA",
"i.	c #F7F8FB",
"j.	c #C6CCDD",
"k.	c #D1D5E4",
"l.	c #FDFDFE",
"m.	c #E8EBF3",
"n.	c #C7CCDF",
"o.	c #F5F5F9",
"p.	c #FCFFFC",
"q.	c #D5DBE7",
"r.	c #C3CCE2",
"s.	c #D9DEE8",
"t.	c #FCFEFD",
"u.	c #F0F5F7",
"v.	c #C5CFDB",
"w.	c #C3CDDD",
"x.	c #E9EDF4",
"y.	c #FDFEFC",
"z.	c #D4D8E5",
"A.	c #CED4E3",
"B.	c #FFFEFD",
"C.	c #FAFBFA",
"D.	c #C7CCE0",
"E.	c #D3D8E5",
"F.	c #FAFBFB",
"G.	c #C5CDDE",
"H.	c #D8DDE9",
"I.	c #FDFEFD",
"J.	c #DBE1EA",
"K.	c #F9F9FA",
"L.	c #C4CBE3",
"M.	c #E1E5EF",
"N.	c #FDFFFE",
"O.	c #F9F8FB",
"P.	c #C5CCDC",
"Q.	c #C3CBDE",
"R.	c #CAD1E2",
"S.	c #EDEFF4",
"T.	c #FAFAFA",
"U.	c #CDD4E0",
"V.	c #C4CBDE",
"W.	c #CAD0E1",
"X.	c #F9FBFD",
"Y.	c #F8FBFD",
"Z.	c #CAD1E0",
"`.	c #D9DDE7",
" +	c #E2E7EB",
".+	c #DFE5EC",
"++	c #C2CDDE",
"@+	c #C1CEDF",
"#+	c #C4CEDF",
"$+	c #F4F6F8",
"%+	c #C1CDDF",
"&+	c #D3D7E2",
"*+	c #C3CCDD",
"=+	c #CCD2E1",
"-+	c #E5E7EF",
";+	c #F9FAFC",
">+	c #FAF9FC",
",+	c #E5E8ED",
"'+	c #CDD4DF",
")+	c #C4CDDD",
"!+	c #C6CBDE",
"~+	c #C3CBE2",
"{+	c #CFD6E3",
"]+	c #EBEDF1",
"^+	c #FBFCFE",
"/+	c #FCFDFE",
"(+	c #ECEFF2",
"_+	c #D1D9E4",
":+	c #C3CCE1",
"<+	c #C2CEDE",
"[+	c #ECF1F4",
"}+	c #FDFEFE",
"|+	c #F1F3F7",
"1+	c #D7DDE8",
"2+	c #C4CEDE",
"3+	c #D3DCE4",
"4+	c #EFF1F4",
"5+	c #F5F6F9",
"6+	c #DCDFE9",
"7+	c #C7CEE1",
"8+	c #D5DAE6",
"9+	c #F1F1F7",
"0+	c #F6F8FA",
"a+	c #DEE2EB",
"b+	c #C8CEDE",
"c+	c #C3CCE3",
"d+	c #C2CCDF",
"e+	c #D0D8E6",
"f+	c #EFF2F6",
"g+	c #FFFDFD",
"h+	c #FEFFFB",
"i+	c #F5F8FA",
"j+	c #DEE1EC",
"k+	c #C7CDE1",
"l+	c #CDD2E2",
"m+	c #EBECF3",
"n+	c #F6F8F9",
"o+	c #DAE1E7",
"p+	c #C5CFDC",
"q+	c #E3E4EB",
"r+	c #FCFBFC",
"s+	c #F2F5F8",
"t+	c #D2DBE6",
"u+	c #C2CDDC",
"v+	c #C4CDDB",
"w+	c #FAFEFB",
"x+	c #E6EAF1",
"y+	c #C6CEDD",
"z+	c #D0D8E1",
"A+	c #F9F9FB",
"B+	c #FFFDFF",
"C+	c #E5EBF1",
"D+	c #C8D2DD",
"E+	c #F5FAFA",
"F+	c #DBE0E6",
"G+	c #C3CEDE",
"H+	c #E7EBF1",
"I+	c #F8FAFD",
"J+	c #DADDE9",
"                                                                                                                                ",
"                                                                                                                                ",
"                                                                      .                                                         ",
"                                                      + @ # $ % & * = - ; > ,                                                   ",
"                                                        ' $ ) ! ~ { ] ^ / ( ,                                                   ",
"                                                _ .   : < [ } | 1 2 3 | 4 5                                                     ",
"                                              6 7 . 8 9 2 2 0 0 0 0 0 a b c d ' e                                               ",
"                                            6 ' f g h i 0 0 0 0 0 0 0 j | k l : m                                               ",
"                                          . 7 n o p 3 3 0 0 0 0 0 0 0 0 0 3 q r s . .                                           ",
"                                      + 6 t u v w 0 0 0 0 0 0 0 0 0 0 0 0 0 x y z ' A                                           ",
"                                      _ B C D E 0 0 0 0 0 0 0 0 0 0 0 0 0 0 0 0 F G H I                                         ",
"                                      d m J i x 0 0 0 0 0 0 0 0 0 0 0 0 0 0 w 0 K L M                                           ",
"                                        N O x 0 0 0 0 0 0 0 0 0 0 0 0 0 0 0 0 0 P 3 Q                                           ",
"                                      . R S 0 0 0 0 0 0 0 0 0 0 0 0 0 0 0 0 0 0 P x T U                                         ",
"                                      . V P 0 0 0 0 0 0 0 0 0 0 0 0 0 0 0 0 0 0 P w W X                                         ",
"                                      . ! P 0 0 0 0 0 0 0 0 0 0 0 0 0 0 0 0 0 0 3 w Y Z                                         ",
"                                      `  .P 0 0 0 0 0 0 0 0 0 0 0 0 0 0 0 0 0 0 3 w ..+.                                        ",
"                                      ` @.P 0 0 0 0 0 0 0 0 0 0 0 0 0 0 0 0 0 0 3 w ..+.                                        ",
"                                      . #.P 0 0 0 0 0 0 0 0 0 0 0 0 0 0 0 0 0 0 3 w ..+.                                        ",
"                                      e $.P 0 0 0 0 0 0 0 0 0 0 0 0 0 0 0 0 0 0 3 w ..+.                                        ",
"                                      m %.0 0 0 0 0 0 0 0 0 0 0 0 0 0 0 0 0 0 0 3 w ..+.                                        ",
"                                      &.*.0 0 0 0 0 0 0 0 0 0 0 0 0 0 0 0 0 0 0 3 w ..+.                                        ",
"                                      &.*.0 0 0 0 0 0 0 0 0 0 0 0 0 0 0 0 0 0 0 3 w ..+.                                        ",
"                                      =.-.K x 0 0 0 0 0 0 0 0 0 0 0 0 0 0 0 0 0 0 j ;.>..                                       ",
"                                      H ,.i 0 0 0 0 0 0 0 0 0 0 0 0 0 0 0 0 0 0 0 '.;.).d                                       ",
"                                      !.~.w 0 0 0 0 0 0 0 0 0 0 0 0 0 0 0 0 0 0 0 '.{.].^.m                                     ",
"                                      /.2 0 0 0 0 0 0 0 0 0 0 0 0 0 0 0 0 0 0 0 0 0 0 (._.d                                     ",
"                                      :.2 0 0 0 0 0 0 0 0 0 0 0 0 0 0 0 0 0 0 0 0 0 0 <.[.d                                     ",
"                                      }.2 0 0 0 0 0 0 0 0 0 0 0 0 0 0 0 0 0 0 0 0 0 0 |.[.d                                     ",
"                                      1.h K P 0 0 0 0 0 0 0 0 0 0 0 0 0 0 0 0 0 0 0 0 2.3.4.                                    ",
"                                      5.6.K P 0 0 0 0 0 0 0 0 0 0 0 0 0 0 0 0 0 0 0 0 7.3..                                     ",
"                                        8.2 P 0 0 0 0 0 0 0 0 0 0 0 0 0 0 0 0 0 0 0 2 9.=.H                                     ",
"                                        0.a.x 0 0 0 0 0 0 0 0 0 0 0 0 0 0 0 0 0 0 b.c.s                                         ",
"                                      H & d.x 0 0 0 0 0 0 0 0 0 0 0 0 0 0 0 0 0 0 2 e.                                          ",
"                                      H A f.w 0 0 0 0 0 0 0 0 0 0 0 0 0 0 0 0 0 P 2 g.&.                                        ",
"                                      %   h.P 0 0 0 0 0 0 0 0 0 0 0 0 0 0 0 0 0 a i.j.                                          ",
"                                      % . k.l.0 0 0 0 0 0 0 0 0 0 0 0 0 0 0 0 0 i m..                                           ",
"                                      H . n.o.x 0 0 0 0 0 0 0 0 0 0 0 0 0 0 0 0 p.q.r.                                          ",
"                                            s.t.x 0 0 0 0 0 0 0 0 0 0 0 0 0 a K u.v.. .                                         ",
"                                            w.x.1 0 0 0 0 0 0 0 0 0 0 0 0 0 a y.z.d                                             ",
"                                            # A.1 0 0 0 0 0 0 0 0 0 0 0 0 0 B.C.D..                                             ",
"                                            d E.y.0 0 0 0 0 0 0 0 0 0 0 0 0 w F.G.                                              ",
"                                            d H.I.0 0 0 0 0 0 0 0 0 0 0 0 0 w C.s                                               ",
"                                            d J.y.0 0 0 0 0 0 0 0 0 0 0 0 0 K K.%                                               ",
"                                            L.M.1 0 0 0 0 0 0 0 0 0 0 0 0 0 N.O.P.                                              ",
"                                          Q.R.S.w 0 0 0 0 0 0 0 0 0 0 0 0 0 K T.U.V.                                            ",
"                                        6 W.X.P 0 0 0 0 0 0 0 0 0 0 0 0 0 0 P x Y.Z.r..                                         ",
"                                        6 `.3 0 0 0 0 0 0 0 0 0 0 0 0 0 0 0 0 0 2 @.r..                                         ",
"                                        6  +a 0 0 0 0 0 0 0 0 0 0 0 0 0 0 0 0 0 | .+6                                           ",
"                                    ++@+#+$+a 0 0 0 0 0 0 0 0 0 0 0 0 0 0 0 0 0 B.O s %+@ H                                     ",
"                                  & m m }.N.x 0 0 0 0 0 0 0 0 0 0 0 0 0 0 0 0 0 w I.&+*+. A                                     ",
"                                  . =+-+;+K x 0 0 0 0 0 0 0 0 0 0 0 0 0 0 0 0 0 w w >+,+'+)+                                    ",
"                        !+% ~+. {+]+^+0 0 0 0 0 0 0 0 0 0 0 0 0 0 0 0 0 0 0 0 0 0 x 3 P /+(+_+6 :+  <+                          ",
"                        @ )+V [+h 0 0 0 0 0 0 0 0 0 0 0 0 0 0 0 0 0 0 0 0 0 0 0 0 0 0 0 0 2 }+|+1+2+@+                          ",
"                      d 3+4+y.1 x 0 0 0 0 0 0 0 0 0 0 0 0 0 0 0 0 0 0 0 0 0 0 0 0 0 0 0 0 0 2 P I.5+6+7+                        ",
"            6 6 ' 6 8+9+}+x x 0 0 0 0 0 0 0 0 0 0 0 0 0 0 0 0 0 0 0 0 0 0 0 0 0 0 0 0 0 0 0 0 0 0 0 0 0+a+b+  6 c+. d           ",
"            d+<+e+f+l.g+0 0 0 0 0 0 0 0 0 0 0 0 0 0 0 0 0 0 0 0 0 0 0 0 0 0 0 0 0 0 0 0 0 0 0 0 0 0 0 h+t.i+j+k+  H d           ",
"          Q.l+m+F p i K 0 0 0 0 0 0 0 0 0 0 0 0 0 0 0 0 0 0 0 0 0 0 0 0 0 0 0 0 0 0 0 0 0 0 0 0 0 0 0 a w | 2 n+o+p+            ",
"  m =.@ 5.q+r+0 0 0 0 0 0 0 0 0 0 0 0 0 0 0 0 0 0 0 0 0 0 0 0 0 0 0 0 0 0 0 0 0 0 0 0 0 0 0 0 0 0 0 0 0 0 0 0 0 1 s+t+I e A     ",
"  u+v+A.d.1 j 0 0 0 0 0 0 0 0 0 0 0 0 0 0 0 0 0 0 0 0 0 0 0 0 0 0 0 0 0 0 0 0 0 0 0 0 0 0 0 0 0 0 0 0 0 0 0 0 0 0 i w+x+y+      ",
"  @ z+A+B+0 0 0 0 0 0 0 0 0 0 0 0 0 0 0 0 0 0 0 0 0 0 0 0 0 0 0 0 0 0 0 0 0 0 0 0 0 0 0 0 0 0 0 0 0 0 0 0 0 0 0 0 0 a I.C+^.    ",
")+D+E+2 0 0 0 0 0 0 0 0 0 0 0 0 0 0 0 0 0 0 0 0 0 0 0 0 0 0 0 0 0 0 0 0 0 0 0 0 0 0 0 0 0 0 0 0 0 0 0 0 0 0 0 0 0 0 0 0 2 F+G+6 ",
")+H+y.x 0 0 0 0 0 0 0 0 0 0 0 0 0 0 0 0 0 0 0 0 0 0 0 0 0 0 0 0 0 0 0 0 0 0 0 0 0 0 0 0 0 0 0 0 0 0 0 0 0 0 0 0 0 0 0 0 0 k b+7 ",
"5.I+'.x 0 0 0 0 0 0 0 0 0 0 0 0 0 0 0 0 0 0 0 0 0 0 0 0 0 0 0 0 0 0 0 0 0 0 0 0 0 0 0 0 0 0 0 0 0 0 0 0 0 0 0 0 0 0 0 0 0 i J+7 "};
