/* XPM */
static char * C:\Users\Nick\Desktop\iconscoin\bitcoin16_xpm[] = {
"16 16 40 1",
" 	c #C4CCDF",
".	c #C5CDDF",
"+	c #D4D9E6",
"@	c #EFF0F5",
"#	c #FCFCFC",
"$	c #DADFEA",
"%	c #FFFFFE",
"&	c #FFFFFF",
"*	c #FDFDFD",
"=	c #D3D8E6",
"-	c #F3F5F8",
";	c #F0F2F6",
">	c #F4F6F8",
",	c #F4F5F8",
"'	c #C7CEE0",
")	c #FCFDFD",
"!	c #FAFBFB",
"~	c #FDFEFE",
"{	c #F9FAFB",
"]	c #C4CCE0",
"^	c #EDEFF3",
"/	c #E8EBF2",
"(	c #DCE1EC",
"_	c #D4DAE7",
":	c #C7CEDF",
"<	c #CFD6E5",
"[	c #F2F4F7",
"}	c #E7EBF1",
"|	c #C4CCDE",
"1	c #C8CFE1",
"2	c #E3E6EE",
"3	c #FBFBFC",
"4	c #F7F8FA",
"5	c #DDE2EC",
"6	c #C6CDDF",
"7	c #E0E4ED",
"8	c #FBFCFC",
"9	c #DCE1EA",
"0	c #E5E9EF",
"a	c #DDE2EB",
"         .      ",
"      +@#$      ",
"     $%&&*=     ",
"     -&&&&;     ",
"     >&&&&,     ",
"     >&&&&,     ",
"    ')&&&&!     ",
"     ~&&&&{]    ",
"     ^&&&&/     ",
"     (&&&&_     ",
"     :%&&%      ",
"     (&&&&<     ",
"    '[&&&&}|    ",
"  123&&&&&&456  ",
" 78&&&&&&&&&&{9 ",
"0&&&&&&&&&&&&&&a"};
