/* XPM */
static char * C:\Users\Nick\Desktop\iconscoin\bitcoin32_xpm[] = {
"32 32 102 2",
"  	c #C4CCDF",
". 	c #C3CDDF",
"+ 	c #C4CCE0",
"@ 	c #C4CCDE",
"# 	c #C7CEE1",
"$ 	c #CDD3E2",
"% 	c #C5CCDF",
"& 	c #D2D8E6",
"* 	c #E6E9EF",
"= 	c #F3F5F8",
"- 	c #FDFEFC",
"; 	c #EAECF2",
"> 	c #D1D7E6",
", 	c #F2F4F7",
"' 	c #FEFEFE",
") 	c #FFFFFF",
"! 	c #FFFFFE",
"~ 	c #EEF1F5",
"{ 	c #C9CFE0",
"] 	c #D7DEE8",
"^ 	c #FDFDFC",
"/ 	c #FFFEFF",
"( 	c #F5F6F8",
"_ 	c #CBD1E2",
": 	c #CCD3E4",
"< 	c #FBFDFC",
"[ 	c #F3F4F7",
"} 	c #C5CDDF",
"| 	c #E3E7EF",
"1 	c #FEFFFF",
"2 	c #DADEE9",
"3 	c #E9EDF1",
"4 	c #FFFEFE",
"5 	c #E2E6EE",
"6 	c #EBEEF3",
"7 	c #E3E6EF",
"8 	c #ECEFF4",
"9 	c #EEF0F5",
"0 	c #C3CCE0",
"a 	c #EDF0F4",
"b 	c #C9D0E2",
"c 	c #F4F7F7",
"d 	c #FFFFFD",
"e 	c #EAEEF2",
"f 	c #D0D6E4",
"g 	c #FCFCFC",
"h 	c #C9D0E0",
"i 	c #F7F8F9",
"j 	c #C3CDE1",
"k 	c #F9F9FC",
"l 	c #EFF0F5",
"m 	c #E1E6ED",
"n 	c #D6DCE8",
"o 	c #D4D9E6",
"p 	c #FDFDFE",
"q 	c #C7CDE0",
"r 	c #C7CEE0",
"s 	c #FCFCFD",
"t 	c #D4DBE5",
"u 	c #CAD1E1",
"v 	c #FEFFFE",
"w 	c #FCFDFC",
"x 	c #D7DCEA",
"y 	c #C6CDDE",
"z 	c #CAD2E2",
"A 	c #FDFEFF",
"B 	c #E8EBF1",
"C 	c #C4CCE1",
"D 	c #D9DFE9",
"E 	c #F5F7F8",
"F 	c #CFD4E5",
"G 	c #F3F5F7",
"H 	c #FEFFFD",
"I 	c #DEE2EB",
"J 	c #C6CEDF",
"K 	c #D2D9E6",
"L 	c #EEF0F4",
"M 	c #FEFEFF",
"N 	c #F9FAFB",
"O 	c #E2E7EE",
"P 	c #C9D1E1",
"Q 	c #D4DAE7",
"R 	c #F0F3F5",
"S 	c #FCFDFD",
"T 	c #E7EAF1",
"U 	c #CCD2E2",
"V 	c #D0D7E4",
"W 	c #F0F2F5",
"X 	c #E8EAF1",
"Y 	c #CAD2E0",
"Z 	c #C3CCDF",
"` 	c #C5CFE0",
" .	c #E7EAF0",
"..	c #FBFCFC",
"+.	c #DEE4ED",
"@.	c #C5CCE0",
"#.	c #C5CEDE",
"$.	c #F0F3F6",
"%.	c #E2E7ED",
"&.	c #C3CDDE",
"*.	c #DCE1EB",
"=.	c #CAD1E2",
"                                                                ",
"                            . + @ # $                           ",
"                          % & * = - ;                           ",
"                      + > , ' ) ) ! ~ { +                       ",
"                      ] ^ / ) ) ) ) ) ( _ +                     ",
"                  @ : < ) ) ) ) ) ) ) ! [ }                     ",
"                    | ) ) ) ) ) ) ) ) ) 1 2                     ",
"                  + 3 ) ) ) ) ) ) ) ) ) 4 5                     ",
"                  + 6 ) ) ) ) ) ) ) ) ) 4 7                     ",
"                  + 8 ) ) ) ) ) ) ) ) ) 4 7                     ",
"                  + 9 ) ) ) ) ) ) ) ) ) 4 7                     ",
"                  0 a ) ) ) ) ) ) ) ) ) ! |                     ",
"                  b c ) ) ) ) ) ) ) ) ) d e @                   ",
"                  f ' ) ) ) ) ) ) ) ) ) ) g .                   ",
"                  h ' ) ) ) ) ) ) ) ) ) ) i j                   ",
"                  @ k 1 ) ) ) ) ) ) ) ) ) l 0                   ",
"                    m ! ) ) ) ) ) ) ) ) / n                     ",
"                    o ) ) ) ) ) ) ) ) ) p q                     ",
"                    r s ) ) ) ) ) ) ) ) ~ +                     ",
"                      5 ! ) ) ) ) ) ) ' t                       ",
"                      u ! ) ) ) ) ) ) ^ %                       ",
"                      f v ) ) ) ) ) ) w @                       ",
"                      x ! ) ) ) ) ) ) s y                       ",
"                    z A ) ) ) ) ) ) ) ) B C                     ",
"                  . D ! ) ) ) ) ) ) ) ) E .                     ",
"                  F G ! ) ) ) ) ) ) ) ) H I J                   ",
"            @ K L M ) ) ) ) ) ) ) ) ) ) ) ) N O P .             ",
"      .   Q R H ) ) ) ) ) ) ) ) ) ) ) ) ) ) ) ) S T U   +       ",
"      V W ' ) ) ) ) ) ) ) ) ) ) ) ) ) ) ) ) ) ) ) ! w X Y       ",
"Z `  .' ) ) ) ) ) ) ) ) ) ) ) ) ) ) ) ) ) ) ) ) ) ) ) ) ..+.@.  ",
"#.$.) ) ) ) ) ) ) ) ) ) ) ) ) ) ) ) ) ) ) ) ) ) ) ) ) ) ) ! %.&.",
"*.H ) ) ) ) ) ) ) ) ) ) ) ) ) ) ) ) ) ) ) ) ) ) ) ) ) ) ) ) p =."};
